<?xml version="1.0" standalone="no"?>
<!DOCTYPE svg PUBLIC "-//W3C//DTD SVG 20010904//EN"
 "http://www.w3.org/TR/2001/REC-SVG-20010904/DTD/svg10.dtd">
<svg version="1.0" xmlns="http://www.w3.org/2000/svg"
 width="2500.000000pt" height="2500.000000pt" viewBox="0 0 2500.000000 2500.000000"
 preserveAspectRatio="xMidYMid meet">

<g transform="translate(0.000000,2500.000000) scale(0.100000,-0.100000)"
fill="#000000" stroke="none">
<path d="M5300 13469 c-2335 -1936 -4253 -3528 -4263 -3537 -16 -17 28 -22
828 -91 567 -50 849 -71 857 -64 7 5 74 57 148 115 462 357 2558 1983 3260
2528 316 246 1250 970 2075 1610 825 640 1619 1256 1764 1369 237 184 265 203
283 192 11 -7 1319 -933 2907 -2058 1587 -1125 2947 -2089 3021 -2141 74 -53
203 -144 285 -203 83 -59 741 -526 1464 -1038 l1314 -931 76 0 c42 0 243 7
446 15 204 8 505 19 670 25 165 6 480 17 700 25 220 8 582 22 805 30 1540 55
1885 68 1889 71 2 2 2 5 0 7 -4 4 -1707 1162 -1914 1302 -71 49 -166 113 -210
143 -110 75 -4412 3006 -4657 3173 -109 74 -950 646 -1869 1273 -920 626
-1686 1143 -1703 1147 -17 5 -238 38 -491 74 -253 35 -1124 159 -1935 275
-812 115 -1482 210 -1490 210 -8 0 -1925 -1585 -4260 -3521z"/>
<path d="M18990 15018 c-476 -462 -928 -900 -1005 -974 l-139 -134 399 0 400
1 609 591 608 590 122 -119 c66 -66 338 -330 604 -588 l484 -468 391 2 c216 1
393 4 394 5 3 3 -1987 1931 -1996 1933 -3 1 -395 -377 -871 -839z"/>
<path d="M19597 14553 l-257 -248 0 -691 0 -690 502 -340 c276 -186 508 -343
515 -347 11 -7 13 175 13 1035 l0 1044 -250 242 c-137 133 -253 242 -258 242
-4 0 -124 -111 -265 -247z"/>
<path d="M8740 12555 l0 -675 665 0 665 0 0 675 0 675 -665 0 -665 0 0 -675z"/>
<path d="M10360 12557 l0 -673 665 -2 665 -2 0 675 0 675 -665 0 -665 0 0
-673z"/>
<path d="M8740 10861 l0 -668 88 -6 c48 -3 347 -6 665 -7 l577 -1 0 676 0 675
-665 0 -665 0 0 -669z"/>
<path d="M10360 10855 l0 -675 665 0 665 0 0 675 0 675 -665 0 -665 0 0 -675z"/>
<path d="M830 9957 c0 -5 460 -388 750 -624 1111 -904 2074 -1574 3011 -2096
1883 -1048 3747 -1543 5599 -1486 988 30 1946 203 2918 528 372 125 604 215
1132 441 721 310 1001 410 1740 627 785 229 1694 396 2555 467 443 37 555 41
1210 41 690 -1 836 -7 1370 -56 1100 -101 2310 -353 3040 -634 61 -24 -23 24
-205 117 -862 437 -1849 846 -2805 1161 -2688 886 -5015 1023 -6825 402 -268
-93 -439 -163 -1265 -525 -544 -238 -866 -356 -1280 -469 -1563 -427 -3184
-535 -4860 -326 -1953 245 -3915 948 -5410 1940 -199 132 -465 325 -602 437
-40 33 -73 57 -73 55z"/>
</g>
</svg>
